<svg width="38" height="38" viewBox="0 0 38 38" fill="none" xmlns="http://www.w3.org/2000/svg">
<rect width="38" height="38" rx="19" fill="#F36181"/>
<g clip-path="url(#clip0_440_11912)">
<path d="M16.554 19.5073H12.4651C11.3967 19.5073 10.5264 20.3768 10.5264 21.4455V25.5345C10.5264 26.6033 11.3967 27.4727 12.4651 27.4727H16.554C17.6225 27.4727 18.4928 26.6033 18.4928 25.5345V21.4455C18.4928 20.3768 17.6225 19.5073 16.554 19.5073ZM15.8494 24.8298C15.7535 24.9259 15.6229 24.9798 15.4872 24.9798C15.3509 24.9798 15.2214 24.9261 15.1251 24.8297L14.5096 24.2142L13.8942 24.8297C13.6943 25.0296 13.3697 25.0297 13.1698 24.8297C12.9699 24.6297 12.9699 24.3056 13.1698 24.1057L13.7852 23.4902L13.1698 22.8743C12.9702 22.6745 12.97 22.3504 13.1698 22.1507C13.3698 21.9508 13.6943 21.9507 13.8942 22.1507L14.5096 22.7662L15.1251 22.1507C15.325 21.9507 15.6495 21.9508 15.8495 22.1507C16.0493 22.3504 16.0491 22.6745 15.8495 22.8743L15.2341 23.4902L15.8495 24.1057C16.0494 24.3057 16.049 24.6296 15.8494 24.8298ZM16.554 10.5273H12.4651C11.3967 10.5273 10.5264 11.3968 10.5264 12.4655V16.5545C10.5264 17.6233 11.3967 18.4927 12.4651 18.4927H16.554C17.6225 18.4927 18.4928 17.6233 18.4928 16.5545V12.4655C18.4928 11.3968 17.6225 10.5273 16.554 10.5273ZM15.8935 15.0221H15.0221V15.8929C15.0221 16.1755 14.792 16.4048 14.5096 16.4048C14.2269 16.4048 13.9987 16.1753 13.9987 15.8929V15.0221H13.1274C12.8447 15.0221 12.6149 14.793 12.6149 14.5102C12.6149 14.2275 12.8448 13.9983 13.1274 13.9983H13.9988V13.1275C13.9988 12.845 14.2268 12.6156 14.5096 12.6156C14.7922 12.6156 15.0221 12.8447 15.0221 13.1275V13.9983H15.8935C16.1763 13.9983 16.4044 14.2277 16.4044 14.5102C16.4044 14.7927 16.1763 15.0221 15.8935 15.0221ZM25.5344 10.5273H21.4455C20.377 10.5273 19.5067 11.3968 19.5067 12.4656V16.5545C19.5067 17.6233 20.377 18.4927 21.4455 18.4927H25.5344C26.6029 18.4927 27.4731 17.6233 27.4731 16.5545V12.4655C27.4732 11.3968 26.6029 10.5273 25.5344 10.5273ZM24.8722 15.0221H22.1077C21.8251 15.0221 21.5952 14.793 21.5952 14.5102C21.5952 14.2275 21.8252 13.9983 22.1077 13.9983H24.8722C25.1548 13.9983 25.3847 14.2275 25.3847 14.5102C25.3847 14.793 25.1548 15.0221 24.8722 15.0221ZM25.5344 19.5073H21.4455C20.377 19.5073 19.5067 20.3768 19.5067 21.4455V25.5345C19.5067 26.6033 20.377 27.4727 21.4455 27.4727H25.5344C26.6029 27.4727 27.4731 26.6033 27.4731 25.5345V21.4455C27.4732 20.3768 26.6029 19.5073 25.5344 19.5073ZM24.8722 24.9052H22.1077C21.8253 24.9052 21.5952 24.6759 21.5952 24.3934C21.5952 24.1106 21.8252 23.8815 22.1077 23.8815H24.8722C25.1548 23.8815 25.3847 24.1106 25.3847 24.3934C25.3847 24.6759 25.1546 24.9052 24.8722 24.9052ZM24.8722 23.0989H22.1077C21.8251 23.0989 21.5952 22.8698 21.5952 22.587C21.5952 22.3042 21.8252 22.0751 22.1077 22.0751H24.8722C25.1548 22.0751 25.3847 22.3042 25.3847 22.587C25.3847 22.8698 25.1548 23.0989 24.8722 23.0989Z" fill="white"/>
</g>
<defs>
<clipPath id="clip0_440_11912">
<rect width="18" height="18" fill="white" transform="translate(10 10)"/>
</clipPath>
</defs>
</svg>
